<svg xmlns="http://www.w3.org/2000/svg" viewBox="0 0 210 297" height="297mm" width="210mm"><g fill="#66cdaa"><path d="M61.988 203.262l-.032-.128c-1.838.459-4.211.554-6.997.238-2.564-.291-5.461-.931-8.47-1.93-5.424-1.8-11.395-4.848-15.403-8.855-9.403-9.403-16.05-19.375-20.197-29.928-3.978-10.123-5.63-20.707-5.289-31.76.65-21.091 8.504-43.256 20.213-66.677 2.097-4.195 2.78-8.172 2.92-11.956.137-3.67-.245-7.114-.223-10.271.011-1.549.122-3.031.45-4.434.326-1.387.865-2.703 1.74-3.94.867-1.223 2.066-2.375 3.728-3.447 1.645-1.06 3.745-2.043 6.43-2.938 5.98-1.994 12.647-1.786 19.676-.058 6.902 1.697 14.096 4.844 21.245 8.722 7.035 3.816 13.945 8.294 20.412 12.704 6.352 4.331 12.225 8.564 17.19 11.873 2.058 1.372 4.302 3.134 6.685 5.082 2.348 1.92 4.817 4.01 7.331 6.037 2.482 2 5.018 3.946 7.51 5.58 2.466 1.619 4.906 2.943 7.228 3.716 2.682.892 5.914 1.086 9.17 1.05 3.196-.037 6.397-.297 9.004-.298 1.124 0 2.41.407 3.812 1.149 1.396.74 2.9 1.806 4.462 3.118 3.11 2.613 6.439 6.187 9.58 10.035a124.818 124.818 0 018.374 11.563 75.83 75.83 0 012.96 5.028c.799 1.504 1.393 2.805 1.73 3.816 1.646 4.934 2.218 10.418 2.374 16.012.155 5.56-.102 11.21-.1 16.468.002 13.054 1.009 26.73-1.502 39.298-.335 1.68-1.012 3.233-1.9 4.696-.89 1.467-1.99 2.844-3.171 4.173-2.37 2.669-5.055 5.14-7.005 7.743-10.28 13.708-26.055 22.143-43.084 25.5-17.22 3.397-35.7 1.61-51.352-5.097-9.469-4.055-18.785-11.22-25.696-18.128-2.761-2.759-5.966-5.193-9.08-7.562-3.227-2.454-6.348-4.83-9.07-7.55-5.512-5.512-8.902-10.91-10.802-16.24-1.93-5.409-2.333-10.77-1.831-16.118.509-5.431 1.958-10.893 3.73-16.378 1.808-5.596 3.958-11.25 5.878-17.01 1.1-3.3 1.506-6.499 1.56-9.62.055-3.18-.257-6.337-.606-9.434-.362-3.215-.757-6.325-.895-9.546-.14-3.288-.004-6.576.69-9.957l.01-.048-.025.042c-6.193 10.193-15.49 19.736-22.26 28.282-3.769 4.76-7.093 9.542-9.665 14.73-2.676 5.398-4.478 11.121-5.112 17.468-.502 5.029-.068 9.963.393 14.254.568 5.285 1.121 9.301 1.121 13.717 0-4.416-.552-8.432-1.12-13.717-.46-4.292-.892-9.225-.389-14.253.635-6.346 2.437-12.069 5.114-17.466 2.572-5.186 5.897-9.968 9.667-14.726 6.76-8.532 16.045-18.062 22.24-28.24-.687 3.367-.823 6.641-.684 9.914.137 3.223.531 6.334.892 9.549.347 3.097.658 6.251.601 9.43-.055 3.12-.463 6.316-1.562 9.61-1.92 5.76-4.073 11.413-5.882 17.01-1.774 5.485-3.225 10.95-3.736 16.385-.503 5.352-.101 10.72 1.83 16.137 1.901 5.337 5.294 10.741 10.81 16.259 2.722 2.724 5.844 5.105 9.068 7.561 3.114 2.372 6.313 4.806 9.069 7.564 6.91 6.915 16.23 14.093 25.709 18.158 15.667 6.716 34.165 8.509 51.403 5.113 17.047-3.359 32.849-11.8 43.149-25.531 1.943-2.59 4.63-5.058 7.006-7.73 1.184-1.33 2.291-2.713 3.187-4.187.895-1.471 1.58-3.035 1.92-4.733 2.52-12.583 1.52-26.282 1.523-39.322.002-5.253.263-10.904.11-16.472-.152-5.6-.721-11.102-2.372-16.06-.34-1.023-.938-2.333-1.738-3.84a75.898 75.898 0 00-2.965-5.041 124.937 124.937 0 00-8.382-11.582c-3.143-3.854-6.478-7.438-9.6-10.062-1.566-1.317-3.08-2.393-4.49-3.14-1.415-.75-2.73-1.172-3.895-1.173-2.62-.001-5.82.256-9.007.288-3.251.034-6.456-.163-9.105-1.048-2.299-.767-4.722-2.082-7.18-3.696-2.483-1.63-5.012-3.573-7.49-5.573-2.511-2.026-4.979-4.117-7.328-6.04-2.382-1.95-4.632-3.718-6.7-5.097-4.957-3.306-10.83-7.541-17.184-11.876-6.47-4.413-13.386-8.897-20.43-12.72-7.157-3.883-14.37-7.041-21.298-8.746-7.054-1.735-13.768-1.952-19.803.06-2.7.899-4.819 1.888-6.485 2.962-1.683 1.084-2.907 2.256-3.793 3.507-.896 1.265-1.447 2.61-1.78 4.022-.334 1.427-.446 2.929-.458 4.487-.023 3.179.358 6.616.22 10.264-.14 3.759-.819 7.699-2.897 11.854C13.875 87.543 6 109.746 5.347 130.891c-.343 11.084 1.312 21.703 5.303 31.862 4.161 10.59 10.828 20.592 20.252 30.017 4.047 4.048 10.058 7.114 15.504 8.922 3.024 1.004 5.94 1.649 8.524 1.942 2.805.32 5.212.226 7.09-.244l-.032-.128z"/><path d="M109.957 230.224c-16.452-3.105-29.185-9.844-42.828-22.666-2.703-2.54-7.84-6.872-11.417-9.627-17.561-13.526-23.007-26.24-19.178-44.775.635-3.076 3.1-11.14 5.476-17.922l4.321-12.33-.313-9.45a837.054 837.054 0 01-.374-17.954c-.033-4.678-.129-8.505-.213-8.504-.084 0-1.24 1.616-2.57 3.591-2.246 3.335-11.005 14.454-12.06 15.308-1.855 1.505-12.285 15.24-14.928 19.661-3.798 6.35-7.675 17.32-7.786 22.028l-.077 3.29-.656-2.645c-1.31-5.295-1.66-17.026-.74-24.927 1.718-14.786 6.44-30.194 14.945-48.779 7.408-16.187 7.238-15.58 7.457-26.6.23-11.492 1.096-14.17 5.536-17.109 6.9-4.566 16.97-5.577 27.3-2.741 6.776 1.86 19.86 8.019 28.711 13.515 10.54 6.544 30.066 20.303 38.554 27.165 15.123 12.227 19.817 14.238 31.54 13.508 5.173-.321 6.72-.138 9.207 1.093 5.896 2.917 19.779 19.116 24.824 28.967 3.85 7.518 4.14 9.758 4.528 35.064.403 26.242-.399 38.495-2.855 43.605-2.671 5.56-18.193 22.224-25.014 26.856-6.83 4.639-16.07 8.782-24.465 10.971-9.604 2.505-27.497 3.186-36.925 1.407z"/><path d="M51.254 202.234c-7.942-1.712-15.532-5.887-21.275-11.703-8.864-8.977-16.147-20.632-20.045-32.078-1.65-4.845-1.73-5.748-.994-11.128 1.865-13.618 6.432-21.8 23.21-41.582 3.774-4.45 8-9.678 9.392-11.62l2.53-3.529.62 8.974c.342 4.935.648 12.205.68 16.155.055 6.87-.125 7.693-4.166 19.014-4.983 13.958-6.583 21.075-6.583 29.267 0 13.56 6.515 24.41 21.355 35.567 2.391 1.797 4.347 3.397 4.347 3.555 0 .566-4.244.148-9.071-.892z"/><path d="M109.19 230.93c-15.672-2.83-28.662-9.571-41.683-21.628l-5.292-4.9-5.67-.43C42.422 202.9 32 196.5 21.42 182.402 10.97 168.48 6.074 154.809 5.362 137.56c-.85-20.572 4.092-40.104 17.192-67.95l4.801-10.205.464-11.34c.616-15.053 1.602-16.86 11.401-20.877 3.272-1.341 5.542-1.673 11.278-1.649 8.834.037 16.08 2.16 28.585 8.37 9.564 4.75 41.456 25.961 41.132 27.357-.114.494.148.678.582.41.433-.268 5.163 3.027 10.509 7.323s11.275 8.587 13.175 9.536c4.54 2.267 10.4 3.164 17.281 2.643 4.678-.353 6.076-.172 8.583 1.113 8.214 4.212 23.703 23.804 27.661 34.99 1.64 4.632 1.738 6.131 2.016 30.949.314 27.94-.372 38.164-2.916 43.467-2.064 4.302-15.567 19.51-21.986 24.763-4.443 3.635-14.758 9.122-15.864 8.438-.52-.321-.69-.227-.41.227.958 1.55-18.757 6.933-22.149 6.046-.844-.221-1.344-.093-1.111.284.669 1.082-19.748.677-26.396-.524z"/></g><path d="M130.143 103.052a43.845 46.113 0 00-43.846 46.113 43.845 46.113 0 0043.846 46.112 43.845 46.113 0 0043.845-46.112 43.845 46.113 0 00-43.845-46.113zm-7.145 45.55h4.872c1.278 0 1.278 1.291 0 1.291h-4.872c-.413.32-.88.085-1.323.06-.03-.001.067.056.046.077-.077.078-.202.088-.295.145-.132.032-.261.082-.396.096-.24.024-.482-.082-.72-.048-.108.015-.2.092-.304.122-.659.185-.824.176-1.522.26-1.055.381-2.107.34-3.202.243-.612.008-1.233.018-1.849.017-.882-.012-1.764-.004-2.647-.004h-3.928c-.032.265-.308.515-.835.515-.284 0-.57-.03-.851 0-.407-.35-.257.14-.395.188-.487.167-1.025.295-1.528.402-.751.208-1.399-.323-2.121-.4-.211-.022-.445.016-.653.041-.356.026-.76.147-1.117.074-.439-.089-.819-.316-1.264-.392-.08.044-.132.056-.166.048-.022.038-.061.05-.124.027-.004.009-.006.019-.011.027-.01.017-.94-.006-.948-.006-.226-.026-.447-.015-.678-.01.026 0 .046.006.041.028-.016.078-.12.108-.193.144-.133.066-.283.093-.416.16-.028.014.115-.022.094.001-.202.222-.437.227-.717.3l-.302-.016c-1.122-.055-.102-2.225.129-1.126a.66.66 0 00.004.02c.005.016 0 .044.015.047.027.005.052-.017.074-.032.13-.09.245-.2.38-.282.018-.01.04.029.06.02.243-.119.361-.452.71-.396.268-.002.66-.013.822.009.15.003.301.007.452.009.073.001.17-.035.248-.04.234-.046.467-.07.607-.068.08 0 .129.009.133.023.38.079.598.1.952.271.04.02.047.09.09.1.319.072.69-.047 1.006-.067.528-.05.997-.054 1.513.092.18.051.36.109.534.179.086.034.152.115.242.13.123.021.25-.017.374-.025.622-.123.304-.042.953-.25.058-.013.121.035.177.014.134-.049.237-.165.371-.215.629-.232.806-.163 1.503-.163.166 0 .305.026.422.069.003-.035.007-.058.01-.097-.032-.468-.11-.601.002-.632v-.012c0-.016.032 0 .048 0H110.785c.884 0 1.769-.007 2.652.004.653.002 1.307-.016 1.959-.012 1.102.098 1.85.129 2.94-.24.225-.024.452-.036.675-.073.39-.066 1.034-.265 1.416-.311.107-.013.216.016.324.03.04.004.098-.012.12.022.015.026-.048.038-.072.056.396-.211.724-.329 1.192-.343.058-.003.106.044.161.06.346.102.336-.011.846-.16zm-24.82 1.591c-.023-.009-.067.008-.14.06-.17.124-.169.351-.163.586.018.063.037.125.05.183.108-.327.35-.791.254-.829z"/><path d="M146.774 186.962l43.845 65.768z" fill="none" stroke="#000" stroke-width="13.965" stroke-linecap="round" stroke-miterlimit="16.9" stroke-dasharray="13.9649997,13.9649997"/><path d="M130.017 110.612a35.908 38.554 0 00-2.418.07 35.908 38.554 0 00-33.684 40.677l.246-.015c.034-.56.495-1.174.642-.478a.66.66 0 00.004.02c.005.016 0 .044.016.047.026.005.05-.017.073-.032.13-.09.245-.2.38-.282.018-.01.04.029.06.02.243-.119.362-.453.71-.396.268-.002.66-.013.822.009.15.003.301.007.452.009.073 0 .17-.035.248-.04.234-.046.467-.07.607-.068.08 0 .129.009.133.023.38.079.598.1.952.271.04.02.047.09.09.1.319.072.69-.047 1.006-.067.528-.05.997-.054 1.513.092.18.051.36.109.534.179.048.018.09.051.133.08l.873-.053c.098-.023.185-.051.563-.173.058-.012.121.036.177.015.134-.049.237-.165.371-.215.629-.232.806-.164 1.503-.164.166 0 .304.028.421.07.003-.037.007-.054.01-.097-.031-.468-.11-.601.003-.632v-.012c0-.016.032 0 .048 0H110.785c.884 0 1.769-.007 2.652.004.653.002 1.307-.016 1.959-.012 1.102.098 1.85.129 2.94-.24.225-.024.452-.036.675-.073.39-.066 1.034-.265 1.416-.311.107-.013.216.016.324.03.04.004.098-.012.12.022.015.026-.048.037-.072.056.396-.211.724-.329 1.192-.343.058-.003.106.044.161.06.346.102.336-.011.846-.16h4.872c.622 0 .938.305.955.619l.94-.057-.938.07c.008.327-.31.658-.957.658h-4.872c-.413.32-.88.085-1.323.06-.03-.001.067.056.046.077-.077.078-.202.088-.295.145-.132.032-.261.082-.396.096-.24.024-.482-.082-.72-.048-.108.015-.2.092-.304.122-.659.185-.824.176-1.522.26-1.055.381-2.107.34-3.202.243-.612.008-1.233.018-1.849.017-.882-.012-1.764-.004-2.647-.004h-3.349l-.584.044c-.057.248-.333.47-.83.47-.284 0-.57-.028-.851 0-.407-.35-.257.142-.395.189-.487.167-1.025.295-1.528.402-.751.208-1.399-.323-2.121-.4-.211-.022-.445.016-.653.041-.356.026-.76.147-1.117.074a3.527 3.527 0 01-.535-.166l-3.18.242c-.191.172-.41.184-.667.25l-.302-.015a.529.529 0 01-.35-.135l-.377.028a35.908 38.554 0 0038.23 35.746 35.908 38.554 0 0033.423-40.924 35.908 38.554 0 00-35.583-36.095zm-31.838 39.581c-.024-.009-.068.008-.141.06-.17.124-.169.351-.163.586.018.063.037.125.05.183.108-.327.35-.791.254-.829z" fill="#fafafa"/><path d="M126.041 187.364c-11.676-1.347-22.174-8.93-27.77-20.058-2.026-4.031-3.53-9.228-4.075-14.09l-.129-1.145 1.17-.11c.644-.06 1.972-.118 2.951-.13 1.637-.018 1.68-.11.264-.56-.414-.13-.452-.267-.203-.732.256-.48.22-.571-.232-.571-.414 0-.508.156-.409.676.116.603.01.69-.96.805-.6.07-1.312.226-1.583.345-.852.375-1.145-1.026-.974-4.662.452-9.655 4.16-18.47 10.64-25.29 5.309-5.588 12.136-9.336 19.292-10.59 3.04-.534 8.36-.535 11.413-.002 12.76 2.225 23.61 11.908 27.973 24.964 1.62 4.853 1.907 6.824 1.896 13.045-.01 5.14-.081 5.973-.77 8.889-3.839 16.257-16.19 27.648-31.71 29.24-3.203.329-3.742.327-6.784-.024zm-21.693-35.6c.832-.33 2.757-.505 7.231-.661l6.097-.214-6.267.037c-4.94.029-6.37.121-6.75.437-.266.22-1.076.4-1.8.4-.9 0-1.143.07-.765.217.781.306.98.287 2.254-.216zm-3.19-.283a1.094 1.094 0 00-.71 0c-.194.08-.035.143.355.143s.55-.064.355-.143zm-5.6-.851c.498-.4.503-.433.047-.275-.286.099-.708.18-.938.18-.23 0-.34.128-.244.283.237.385.466.347 1.134-.188zm9.074-.133c.352-.147.136-.167-.568-.053-.623.1-1.261.17-1.417.152l-1.56-.18-1.276-.15 1.244.269c.685.147 1.31.332 1.39.412.157.158 1.288-.074 2.187-.45zm-5.105.038a.66.66 0 00-.513-.28c-.203.003-.168.115.088.28.545.352.643.352.425 0zm19.212.096a1.094 1.094 0 00-.709 0c-.195.078-.035.143.355.143s.55-.065.354-.143zm-6.785-.947c3.657 0 6.167-.14 7.661-.425 1.222-.234 3.743-.426 5.6-.426 2.814 0 3.379.072 3.379.426 0 .346-.488.428-2.624.442-1.442.009-3.133.115-3.757.237-.663.129.397.167 2.552.091 2.028-.071 3.8-.233 3.937-.36.138-.127.174-.43.08-.675-.142-.369-.744-.444-3.558-.444-1.862 0-4.387.191-5.609.425-1.508.289-4.022.426-7.823.426h-5.6l.032.638c.025.48.065.515.163.141.118-.45.627-.496 5.567-.496zm8.532.608c.083-.133-.165-.182-.55-.108-.385.073-.7.182-.7.242 0 .22 1.105.101 1.25-.134z" fill="#fafafa"/><path d="M126.183 187.39c-13.425-1.461-25.067-11.103-29.882-24.75-1.267-3.59-2.614-10.687-2.03-10.687.153 0 .134-.374-.045-.887-.4-1.147-.133-6.402.487-9.605 1.034-5.34 3.523-11.237 6.528-15.466 1.952-2.747 5.52-6.405 8.211-8.415 3.007-2.246 8.347-4.835 11.91-5.774 3.802-1.002 10.066-1.257 14.01-.57 14.218 2.476 25.588 13.716 29.141 28.807.94 3.99 1.2 11.03.562 15.17-1.32 8.555-5.118 16.18-10.946 21.978-5.9 5.87-13.104 9.369-20.998 10.199-2.998.315-4.052.315-6.948 0zm-23.395-35.437c-.234-.151-.553-.275-.709-.275-.156 0-.092.124.142.275.234.151.553.275.71.275.155 0 .091-.124-.143-.275zm-4.572-.302c.915-.016.956-.046.377-.279-.547-.22-.601-.352-.344-.833.245-.457.219-.571-.13-.571-.275 0-.435.26-.435.709 0 .619-.124.709-.976.709-.536 0-1.067.147-1.178.327-.146.236.06.276.728.142a13.265 13.265 0 011.958-.204zm5.913.13c-.094-.094-.338-.104-.543-.022-.226.09-.16.158.171.171.3.013.467-.054.372-.149zm5.749-.69l4.395-.218-4.617.066c-3.383.049-4.709.166-4.962.44-.28.303-.24.332.221.152.312-.122 2.545-.32 4.963-.44zm-14.495-.375c.26-.314.182-.36-.417-.246-.538.103-.634.206-.356.382.476.302.398.316.773-.136zm9.107-.233c.304-.185.244-.21-.212-.084-.351.095-1.029.185-1.506.198-.562.016-.738.106-.5.253.395.244 1.52.058 2.218-.367zm-4.963.052a.66.66 0 00-.513-.28c-.203.003-.168.115.088.28.545.352.643.352.425 0zm1.767-.171c-.095-.095-.34-.105-.544-.023-.226.09-.159.158.171.172.3.012.467-.055.373-.15zm18.716 0c-.095-.095-.34-.105-.544-.023-.226.09-.159.158.171.172.3.012.467-.055.373-.15zm-7.709-.75l5.659-.084-5.885-.065c-5.44-.06-5.883-.027-5.88.432.004.347.072.391.226.148.16-.252 1.794-.372 5.88-.432zm14.813.146a23.17 23.17 0 00-2.835-.002c-.825.058-.223.105 1.337.106 1.56.001 2.234-.046 1.498-.104zm1.665-.773c-.14-.367-.749-.427-3.792-.375l-3.625.061 3.616.089c3.123.076 3.616.152 3.616.553 0 .255.08.384.176.287.098-.097.102-.374.01-.615zm-9.467.228c-.192-.078-.575-.083-.85-.01-.277.071-.12.135.348.14.468.006.694-.053.502-.13zm1.701-.284c-.192-.078-.574-.082-.85-.01-.276.071-.12.135.349.14.468.007.693-.052.501-.13z" fill="#fafafa"/><path d="M125.922 187.381c-15.24-1.767-27.66-13.794-31.114-30.129-.895-4.233-.903-12.186-.016-16.27 2.09-9.624 7.187-17.783 14.599-23.368 2.914-2.196 8.362-4.85 11.971-5.833 2.634-.717 3.23-.772 8.366-.77 5.07 0 5.757.062 8.272.74 13.477 3.64 23.597 14.666 26.745 29.142.696 3.197.87 10.814.33 14.32-1.32 8.555-5.118 16.18-10.946 21.978-3.204 3.188-6.043 5.2-10.012 7.095-5.727 2.736-12.036 3.81-18.195 3.095zm-27.848-35.72c.707-.007.791-.064.416-.283-.29-.17-.413-.491-.321-.842.083-.318.009-.568-.168-.568-.174 0-.317.319-.317.709 0 .583-.138.71-.78.713-.429.002-.971.14-1.205.307-.322.23-.193.263.532.138.526-.091 1.356-.17 1.843-.174zm7.132-.504c-.087-.087-.316 0-.508.193-.278.28-.246.313.158.16.28-.107.438-.266.35-.353zm1.34.04a1.094 1.094 0 00-.71 0c-.194.08-.035.144.355.144s.55-.065.355-.143zm-11.272-.379c.096-.155-.032-.283-.284-.283s-.38.128-.283.283c.096.156.224.284.283.284.06 0 .187-.128.284-.284zm8.72-.187a1.094 1.094 0 00-.71 0c-.194.078-.035.143.355.143s.55-.065.355-.143zm7.323-1.166c-2.562-.043-4.757.02-4.878.141-.122.121 1.974.157 4.657.079l4.879-.141zm15.083.303c-.349-.067-.987-.069-1.418-.004-.431.065-.146.12.634.123.78.002 1.133-.052.784-.119zm2.387-.704c-.09-.226-.157-.16-.171.171-.012.3.055.467.149.372.094-.094.104-.338.022-.543zm-9.628.165c-.094-.094-.339-.104-.544-.022-.226.09-.159.158.172.171.299.013.466-.054.372-.149zm1.701-.283c-.094-.095-.339-.105-.543-.023-.226.09-.16.158.171.172.299.012.466-.055.372-.15zm6.395-.32c-.658-.06-1.807-.06-2.552-.001-.746.058-.207.107 1.197.108 1.403 0 2.013-.047 1.355-.107z" fill="#fafafa"/><path d="M125.616 187.358c-3.377-.43-7.236-1.607-10.507-3.203-10.55-5.148-17.8-14.868-20.426-27.381-.723-3.446-.738-11.964-.027-15.313.689-3.247 2.2-7.718 3.468-10.254 2.553-5.112 6.908-10.36 11.317-13.64 2.985-2.221 8.373-4.84 11.921-5.793 2.62-.705 3.256-.763 8.366-.763 5.059 0 5.76.063 8.244.734 10.292 2.78 18.464 9.574 23.385 19.443 1.442 2.892 2.72 6.598 3.444 9.989.74 3.46.731 12.749-.015 16.156-.661 3.024-2.204 7.478-3.438 9.928-2.654 5.272-7.623 11.065-12.127 14.137-7.043 4.806-15.637 6.976-23.605 5.96zm-27.838-35.697c.899-.007 1.07-.075.712-.283-.306-.179-.414-.488-.31-.887.11-.42.057-.548-.168-.41-.18.113-.328.451-.328.754 0 .42-.197.55-.834.55-.459 0-.926.15-1.039.332-.14.227-.047.272.29.142.272-.104 1.027-.194 1.677-.198zm-2.44-1.014c-.094-.094-.338-.104-.543-.022-.226.09-.159.157.171.171.3.012.467-.055.373-.149zm16.596-1.173a37.838 37.838 0 00-3.545 0c-.975.056-.177.1 1.772.1 1.95 0 2.747-.044 1.773-.1zm14.75-.827c-.191-.077-.574-.082-.85-.01-.276.072-.119.135.35.141.467.006.693-.053.5-.13z" fill="#fafafa"/><path d="M126.892 187.522c-.39-.069-1.666-.266-2.836-.439-6.414-.948-13.74-4.822-18.786-9.934-5.233-5.301-9.008-12.554-10.607-20.375-.707-3.462-.711-11.997-.007-15.313 1.268-5.976 3.839-11.813 7.138-16.206 2.261-3.011 6.341-6.95 8.944-8.633 2.973-1.923 7.42-3.96 10.483-4.8 3.324-.911 9.53-1.248 13.425-.727 2.83.378 7.482 1.815 10.017 3.095 8.853 4.469 15.706 12.591 18.898 22.399 1.507 4.632 2.002 8.528 1.807 14.23-.176 5.11-.648 7.712-2.188 12.051-4.422 12.457-14.918 21.775-27.189 24.138-2.188.422-7.81.739-9.099.514zm-29.31-35.853c.719 0 .926-.096.764-.354-.122-.195-.183-.592-.136-.882.053-.32-.033-.453-.22-.338-.168.105-.306.437-.306.74 0 .42-.197.55-.834.55-.459 0-.926.15-1.039.332-.14.227-.047.272.29.142.272-.104.939-.19 1.481-.19zm13.076-2.188a6.264 6.264 0 00-1.56 0c-.429.065-.078.118.78.118.857 0 1.208-.053.78-.118z" fill="#fafafa"/><path d="M125.533 187.4c-11.576-1.633-21.543-8.91-27.084-19.774-3.2-6.277-4.266-10.838-4.29-18.367-.02-5.882.272-7.883 1.854-12.729 2.043-6.253 5.207-11.338 9.873-15.86 3.076-2.982 5.153-4.476 8.738-6.283 5.08-2.562 9.364-3.552 15.37-3.552 4.002 0 7.28.529 10.686 1.724 12.25 4.3 21.099 14.782 24.154 28.612.703 3.18.675 12.88-.046 16.162-1.72 7.834-5.302 14.503-10.666 19.862-5.194 5.189-11.282 8.502-17.983 9.788-2.829.543-8.21.754-10.606.416zM98.33 151.35c-.175-.175-.243-.515-.15-.755.11-.288.054-.367-.164-.233a.78.78 0 00-.332.595c0 .215-.35.443-.78.508-.52.079-.359.132.482.16.933.032 1.18-.04.944-.275z" fill="#fafafa"/><path d="M124.563 187.264c-15.425-2.53-27.668-15.567-30.14-32.098-.584-3.91-.391-11.239.384-14.556 1.838-7.867 5.208-14.032 10.638-19.461 4.442-4.441 8.462-6.94 14.298-8.889 3.423-1.142 6.766-1.527 11.686-1.347 7.537.277 13.724 2.652 20.007 7.678 6.654 5.324 11.828 14.145 13.509 23.033.578 3.054.497 12.724-.13 15.63-3.315 15.35-14.266 26.747-28.565 29.726-3.065.639-8.69.775-11.687.284zM98.15 150.987c-.042-.7-.466-.728-.466-.03 0 .214-.287.444-.638.512-.478.092-.414.133.254.162.773.033.886-.052.85-.644z" fill="#fafafa"/><path d="M124.563 187.263c-4.752-.778-10.161-2.995-14.26-5.845-8.613-5.988-14.657-16.16-16.009-26.943-.408-3.26-.192-10.684.39-13.382 1.066-4.947 3.442-10.553 6.213-14.66 1.732-2.566 5.889-6.925 8.392-8.8 4.077-3.053 9.727-5.56 14.349-6.366 3.143-.548 8.998-.556 12.079-.016 12.9 2.263 23.655 12.164 28.019 25.793 1.407 4.396 1.801 7.678 1.635 13.633-.126 4.507-.243 5.485-1.004 8.365-1.492 5.65-3.509 9.885-6.773 14.225-5.401 7.182-12.75 11.906-21.344 13.719-3.024.638-8.669.772-11.687.277zm-26.316-35.806c-.003-.117-.128-.405-.28-.639-.237-.367-.275-.36-.279.05-.002.262-.227.534-.5.606-.306.08-.196.142.283.162.43.018.778-.063.776-.18z" fill="#fafafa"/><path d="M126.041 187.52l-2.41-.435c-4.282-.775-9.45-2.971-13.316-5.658-7.648-5.317-13.11-13.586-15.398-23.307-.676-2.876-.751-3.748-.763-8.861-.015-6.242.267-8.196 1.875-12.998 1.973-5.89 4.883-10.556 9.426-15.113 5.432-5.449 11.434-8.698 18.284-9.897 3.05-.534 8.927-.534 11.99 0 6.78 1.183 13.22 4.608 18.395 9.783 4.173 4.174 7.19 8.998 9.151 14.635 1.833 5.269 2.043 6.67 2.03 13.59-.01 5.56-.084 6.532-.675 8.932-3.687 14.971-14.273 25.763-28.242 28.788-1.95.423-8.96.789-10.347.54zm-27.794-36.063c-.003-.117-.128-.405-.28-.639-.237-.367-.275-.361-.279.048-.002.26-.163.537-.358.615-.195.08-.068.153.283.166.351.012.636-.074.634-.19z" fill="#fafafa"/><path d="M125.049 187.389c-13.327-2.076-24.538-11.888-29.047-25.422-1.556-4.67-1.863-6.793-1.859-12.85.005-6.083.307-8.139 1.886-12.856 1.973-5.89 4.883-10.556 9.426-15.113 5.635-5.652 12.01-9 19.115-10.04 3.736-.545 10.35-.224 13.744.67 10.9 2.869 20.27 11.561 24.61 22.83.461 1.195 1.185 3.513 1.608 5.151.721 2.785.771 3.373.778 9.074.007 6.74-.199 8.284-1.73 13.005-4.185 12.89-14.599 22.504-27.235 25.142-2.65.553-8.914.78-11.296.409zm-26.952-35.984c.275-.444-.248-.552-.637-.131-.3.325-.29.395.054.395.231 0 .494-.119.583-.264z" fill="#fafafa"/><path d="M124.198 187.247c-13.06-2.446-23.821-12.079-28.182-25.227-1.597-4.816-1.878-6.806-1.86-13.187.015-5.293.083-6.08.76-8.803 1.94-7.796 5.06-13.386 10.539-18.882 4.506-4.52 8.85-7.211 14.496-8.983 3.523-1.105 6.432-1.423 11.435-1.25 5.3.182 8.212.876 12.731 3.033 3.971 1.896 6.81 3.909 10.007 7.095 5.043 5.026 8.308 10.813 10.241 18.149.74 2.81.881 3.932 1.016 8.114.1 3.111.031 5.853-.194 7.641-.968 7.686-4.838 15.796-10.284 21.55-5.155 5.445-11.433 8.992-18.558 10.484-3.16.662-9.314.797-12.147.266zM98.11 151.386c.097-.156.048-.284-.108-.284s-.362.128-.459.284c-.096.156-.047.283.109.283s.362-.127.458-.283z" fill="#fafafa"/><path d="M124.198 187.248c-11.411-2.142-21.157-9.78-26.36-20.66-1.238-2.589-2.633-6.77-3.322-9.956-.51-2.363-.5-12.417.015-15.03 2.612-13.232 11.834-24.46 23.712-28.867 4.327-1.606 5.266-1.75 11.485-1.753 5.5-.004 5.965.039 8.649.787 3.43.957 7.865 3.032 10.844 5.073 7.42 5.084 13.396 14.19 15.54 23.676.683 3.024.856 11.75.303 15.357-1.133 7.395-4.92 15.086-10.154 20.615-4.955 5.234-10.6 8.554-17.384 10.225-3.706.913-9.97 1.163-13.328.533z" fill="#fafafa"/><path d="M124.807 187.392c-13.048-2.066-24.298-11.987-28.846-25.438-1.513-4.473-1.807-6.533-1.815-12.695-.007-6.296.223-8.003 1.677-12.442 2.142-6.539 4.905-10.977 9.908-15.916 4.802-4.74 9.63-7.583 15.69-9.238 2.81-.767 10.22-1.07 13.71-.56 4.98.728 10.822 3.27 15.348 6.677 7.46 5.615 13.144 15.224 14.597 24.673.61 3.965.375 12.669-.428 15.88-3.696 14.78-14.479 25.743-28.192 28.663-2.472.526-9.35.76-11.65.396z" fill="#fafafa"/><path d="M125.474 187.514c-7.004-1.296-11.764-3.372-16.912-7.376-5.818-4.524-10.368-11.22-12.81-18.849-1.377-4.3-1.613-6.104-1.61-12.314.005-6.254.312-8.358 1.872-12.836 2.15-6.168 4.715-10.233 9.451-14.976 4.49-4.495 8.43-7.03 13.69-8.801 3.3-1.112 6.022-1.507 10.465-1.517 6.424-.016 10.172.867 15.704 3.702 9.458 4.847 16.338 13.876 19.32 25.354.6 2.312.662 3.165.667 9.074.004 5.387-.087 6.917-.525 8.791-3.509 15.008-14.37 26.218-28.33 29.237-1.978.427-9.531.779-10.982.51z" fill="#fafafa"/><path d="M123.959 187.23c-6.815-1.231-13.226-4.662-18.495-9.897-4.32-4.294-7.282-9.016-9.311-14.845-1.744-5.011-2.015-6.832-2.006-13.513.006-3.87.14-6.55.384-7.656 1.244-5.628 3.94-11.736 6.949-15.739 2.279-3.031 6.792-7.41 9.4-9.117 6.202-4.062 11.448-5.628 18.848-5.628 6.192 0 10.019.888 15.313 3.554 8.431 4.246 15.03 11.935 18.365 21.4 1.686 4.785 1.91 6.347 1.91 13.328 0 5.235-.095 6.788-.53 8.649-.754 3.225-2.016 6.665-3.588 9.783-5.449 10.806-15.89 18.449-27.075 19.82-3.37.413-7.417.358-10.164-.139z" fill="#fafafa"/><path d="M123.426 187.121c-3.45-.727-5.746-1.534-8.826-3.102-3.675-1.871-6.112-3.663-9.274-6.819-5.25-5.24-8.815-11.836-10.654-19.718-.664-2.844-.758-13.389-.144-16.163 1.168-5.278 3.733-11.278 6.46-15.109 1.88-2.643 6.06-6.927 8.63-8.844 4.001-2.985 9.275-5.321 13.791-6.109 3.106-.541 9.517-.545 12.591-.006 13.726 2.404 25.253 14.103 28.786 29.217.442 1.892.527 3.376.512 8.933-.016 6.267-.062 6.827-.76 9.415-2.095 7.767-5.668 13.95-11.045 19.11-5.454 5.235-12.311 8.578-19.37 9.443-3.683.451-7.84.355-10.697-.248z" fill="#fafafa"/><path d="M123.347 187.107c-6.987-1.47-12.673-4.575-17.883-9.766-5.252-5.235-8.535-11.11-10.54-18.866-.723-2.797-.77-3.356-.773-9.216-.002-4.173.122-6.802.375-7.94 1.178-5.297 3.737-11.28 6.461-15.109 1.881-2.643 6.061-6.927 8.631-8.844 4.001-2.985 9.275-5.321 13.791-6.109 3.037-.53 9.686-.535 12.626-.011 13.744 2.45 25.219 14.113 28.75 29.222.442 1.885.53 3.394.52 8.933-.008 5.943-.076 6.909-.628 8.932-2.239 8.221-5.21 13.546-10.54 18.885-7.154 7.166-15.292 10.513-25.402 10.444-1.617-.01-3.932-.25-5.388-.555z" fill="#fafafa"/></svg>